<svg xmlns="http://www.w3.org/2000/svg" width="1536" height="722" style="cursor: move;"><g transform="translate(459.88204355597736,-21.958369363022257) scale(0.8766057213160351)"><rect class="rect" id="0_0" width="32" height="32" x="-432" y="337" style="fill: rgb(160, 160, 160); stroke: black; stroke-width: 1; opacity: 0.8;"></rect><rect class="rect" id="0_1" width="32" height="32" x="-424" y="345" style="fill: rgb(224, 224, 224); stroke: black; stroke-width: 1; opacity: 0.8;"></rect><rect class="rect" id="0_2" width="32" height="32" x="-416" y="353" style="fill: rgb(160, 160, 160); stroke: black; stroke-width: 1; opacity: 0.8;"></rect><rect class="rect" id="1_0" width="24" height="24" x="-484" y="153" style="fill: rgb(160, 160, 160); stroke: black; stroke-width: 1; opacity: 0.8;"></rect><rect class="rect" id="1_1" width="24" height="24" x="-476" y="161" style="fill: rgb(224, 224, 224); stroke: black; stroke-width: 1; opacity: 0.8;"></rect><rect class="rect" id="1_2" width="24" height="24" x="-468" y="169" style="fill: rgb(160, 160, 160); stroke: black; stroke-width: 1; opacity: 0.8;"></rect><rect class="rect" id="1_3" width="24" height="24" x="-460" y="177" style="fill: rgb(224, 224, 224); stroke: black; stroke-width: 1; opacity: 0.8;"></rect><rect class="rect" id="1_4" width="24" height="24" x="-452" y="185" style="fill: rgb(160, 160, 160); stroke: black; stroke-width: 1; opacity: 0.8;"></rect><rect class="rect" id="1_5" width="24" height="24" x="-444" y="193" style="fill: rgb(224, 224, 224); stroke: black; stroke-width: 1; opacity: 0.8;"></rect><rect class="rect" id="1_6" width="24" height="24" x="-436" y="201" style="fill: rgb(160, 160, 160); stroke: black; stroke-width: 1; opacity: 0.8;"></rect><rect class="rect" id="1_7" width="24" height="24" x="-428" y="209" style="fill: rgb(224, 224, 224); stroke: black; stroke-width: 1; opacity: 0.8;"></rect><rect class="rect" id="1_8" width="24" height="24" x="-420" y="217" style="fill: rgb(160, 160, 160); stroke: black; stroke-width: 1; opacity: 0.8;"></rect><rect class="rect" id="1_9" width="24" height="24" x="-412" y="225" style="fill: rgb(224, 224, 224); stroke: black; stroke-width: 1; opacity: 0.8;"></rect><rect class="rect" id="1_10" width="24" height="24" x="-404" y="233" style="fill: rgb(160, 160, 160); stroke: black; stroke-width: 1; opacity: 0.8;"></rect><rect class="rect" id="1_11" width="24" height="24" x="-396" y="241" style="fill: rgb(224, 224, 224); stroke: black; stroke-width: 1; opacity: 0.8;"></rect><rect class="rect" id="1_12" width="24" height="24" x="-388" y="249" style="fill: rgb(160, 160, 160); stroke: black; stroke-width: 1; opacity: 0.8;"></rect><rect class="rect" id="1_13" width="24" height="24" x="-380" y="257" style="fill: rgb(224, 224, 224); stroke: black; stroke-width: 1; opacity: 0.8;"></rect><rect class="rect" id="1_14" width="24" height="24" x="-372" y="265" style="fill: rgb(160, 160, 160); stroke: black; stroke-width: 1; opacity: 0.8;"></rect><rect class="rect" id="1_15" width="24" height="24" x="-364" y="273" style="fill: rgb(224, 224, 224); stroke: black; stroke-width: 1; opacity: 0.8;"></rect><rect class="rect" id="1_16" width="24" height="24" x="-356" y="281" style="fill: rgb(160, 160, 160); stroke: black; stroke-width: 1; opacity: 0.8;"></rect><rect class="rect" id="1_17" width="24" height="24" x="-348" y="289" style="fill: rgb(224, 224, 224); stroke: black; stroke-width: 1; opacity: 0.8;"></rect><rect class="rect" id="1_18" width="24" height="24" x="-340" y="297" style="fill: rgb(160, 160, 160); stroke: black; stroke-width: 1; opacity: 0.8;"></rect><rect class="rect" id="1_19" width="24" height="24" x="-332" y="305" style="fill: rgb(224, 224, 224); stroke: black; stroke-width: 1; opacity: 0.8;"></rect><rect class="rect" id="1_20" width="24" height="24" x="-324" y="313" style="fill: rgb(160, 160, 160); stroke: black; stroke-width: 1; opacity: 0.8;"></rect><rect class="rect" id="1_21" width="24" height="24" x="-316" y="321" style="fill: rgb(224, 224, 224); stroke: black; stroke-width: 1; opacity: 0.8;"></rect><rect class="rect" id="1_22" width="24" height="24" x="-308" y="329" style="fill: rgb(160, 160, 160); stroke: black; stroke-width: 1; opacity: 0.8;"></rect><rect class="rect" id="1_23" width="24" height="24" x="-300" y="337" style="fill: rgb(224, 224, 224); stroke: black; stroke-width: 1; opacity: 0.8;"></rect><rect class="rect" id="1_24" width="24" height="24" x="-292" y="345" style="fill: rgb(160, 160, 160); stroke: black; stroke-width: 1; opacity: 0.8;"></rect><rect class="rect" id="1_25" width="24" height="24" x="-284" y="353" style="fill: rgb(224, 224, 224); stroke: black; stroke-width: 1; opacity: 0.8;"></rect><rect class="rect" id="1_26" width="24" height="24" x="-276" y="361" style="fill: rgb(160, 160, 160); stroke: black; stroke-width: 1; opacity: 0.8;"></rect><rect class="rect" id="1_27" width="24" height="24" x="-268" y="369" style="fill: rgb(224, 224, 224); stroke: black; stroke-width: 1; opacity: 0.8;"></rect><rect class="rect" id="1_28" width="24" height="24" x="-260" y="377" style="fill: rgb(160, 160, 160); stroke: black; stroke-width: 1; opacity: 0.8;"></rect><rect class="rect" id="1_29" width="24" height="24" x="-252" y="385" style="fill: rgb(224, 224, 224); stroke: black; stroke-width: 1; opacity: 0.8;"></rect><rect class="rect" id="1_30" width="24" height="24" x="-244" y="393" style="fill: rgb(160, 160, 160); stroke: black; stroke-width: 1; opacity: 0.8;"></rect><rect class="rect" id="1_31" width="24" height="24" x="-236" y="401" style="fill: rgb(224, 224, 224); stroke: black; stroke-width: 1; opacity: 0.8;"></rect><rect class="rect" id="1_32" width="24" height="24" x="-228" y="409" style="fill: rgb(160, 160, 160); stroke: black; stroke-width: 1; opacity: 0.8;"></rect><rect class="rect" id="1_33" width="24" height="24" x="-220" y="417" style="fill: rgb(224, 224, 224); stroke: black; stroke-width: 1; opacity: 0.8;"></rect><rect class="rect" id="1_34" width="24" height="24" x="-212" y="425" style="fill: rgb(160, 160, 160); stroke: black; stroke-width: 1; opacity: 0.8;"></rect><rect class="rect" id="1_35" width="24" height="24" x="-204" y="433" style="fill: rgb(224, 224, 224); stroke: black; stroke-width: 1; opacity: 0.8;"></rect><rect class="rect" id="1_36" width="24" height="24" x="-196" y="441" style="fill: rgb(160, 160, 160); stroke: black; stroke-width: 1; opacity: 0.8;"></rect><rect class="rect" id="1_37" width="24" height="24" x="-188" y="449" style="fill: rgb(224, 224, 224); stroke: black; stroke-width: 1; opacity: 0.8;"></rect><rect class="rect" id="1_38" width="24" height="24" x="-180" y="457" style="fill: rgb(160, 160, 160); stroke: black; stroke-width: 1; opacity: 0.8;"></rect><rect class="rect" id="1_39" width="24" height="24" x="-172" y="465" style="fill: rgb(224, 224, 224); stroke: black; stroke-width: 1; opacity: 0.8;"></rect><rect class="rect" id="1_40" width="24" height="24" x="-164" y="473" style="fill: rgb(160, 160, 160); stroke: black; stroke-width: 1; opacity: 0.8;"></rect><rect class="rect" id="1_41" width="24" height="24" x="-156" y="481" style="fill: rgb(224, 224, 224); stroke: black; stroke-width: 1; opacity: 0.8;"></rect><rect class="rect" id="1_42" width="24" height="24" x="-148" y="489" style="fill: rgb(160, 160, 160); stroke: black; stroke-width: 1; opacity: 0.8;"></rect><rect class="rect" id="1_43" width="24" height="24" x="-140" y="497" style="fill: rgb(224, 224, 224); stroke: black; stroke-width: 1; opacity: 0.8;"></rect><rect class="rect" id="1_44" width="24" height="24" x="-132" y="505" style="fill: rgb(160, 160, 160); stroke: black; stroke-width: 1; opacity: 0.8;"></rect><rect class="rect" id="1_45" width="24" height="24" x="-124" y="513" style="fill: rgb(224, 224, 224); stroke: black; stroke-width: 1; opacity: 0.8;"></rect><rect class="rect" id="1_46" width="24" height="24" x="-116" y="521" style="fill: rgb(160, 160, 160); stroke: black; stroke-width: 1; opacity: 0.8;"></rect><rect class="rect" id="1_47" width="24" height="24" x="-108" y="529" style="fill: rgb(224, 224, 224); stroke: black; stroke-width: 1; opacity: 0.8;"></rect><rect class="rect" id="1_48" width="24" height="24" x="-100" y="537" style="fill: rgb(160, 160, 160); stroke: black; stroke-width: 1; opacity: 0.8;"></rect><rect class="rect" id="1_49" width="24" height="24" x="-92" y="545" style="fill: rgb(224, 224, 224); stroke: black; stroke-width: 1; opacity: 0.8;"></rect><rect class="rect" id="2_0" width="12" height="12" x="-168" y="159" style="fill: rgb(160, 160, 160); stroke: black; stroke-width: 1; opacity: 0.8;"></rect><rect class="rect" id="2_1" width="12" height="12" x="-160" y="167" style="fill: rgb(224, 224, 224); stroke: black; stroke-width: 1; opacity: 0.8;"></rect><rect class="rect" id="2_2" width="12" height="12" x="-152" y="175" style="fill: rgb(160, 160, 160); stroke: black; stroke-width: 1; opacity: 0.8;"></rect><rect class="rect" id="2_3" width="12" height="12" x="-144" y="183" style="fill: rgb(224, 224, 224); stroke: black; stroke-width: 1; opacity: 0.8;"></rect><rect class="rect" id="2_4" width="12" height="12" x="-136" y="191" style="fill: rgb(160, 160, 160); stroke: black; stroke-width: 1; opacity: 0.8;"></rect><rect class="rect" id="2_5" width="12" height="12" x="-128" y="199" style="fill: rgb(224, 224, 224); stroke: black; stroke-width: 1; opacity: 0.8;"></rect><rect class="rect" id="2_6" width="12" height="12" x="-120" y="207" style="fill: rgb(160, 160, 160); stroke: black; stroke-width: 1; opacity: 0.8;"></rect><rect class="rect" id="2_7" width="12" height="12" x="-112" y="215" style="fill: rgb(224, 224, 224); stroke: black; stroke-width: 1; opacity: 0.8;"></rect><rect class="rect" id="2_8" width="12" height="12" x="-104" y="223" style="fill: rgb(160, 160, 160); stroke: black; stroke-width: 1; opacity: 0.8;"></rect><rect class="rect" id="2_9" width="12" height="12" x="-96" y="231" style="fill: rgb(224, 224, 224); stroke: black; stroke-width: 1; opacity: 0.8;"></rect><rect class="rect" id="2_10" width="12" height="12" x="-88" y="239" style="fill: rgb(160, 160, 160); stroke: black; stroke-width: 1; opacity: 0.8;"></rect><rect class="rect" id="2_11" width="12" height="12" x="-80" y="247" style="fill: rgb(224, 224, 224); stroke: black; stroke-width: 1; opacity: 0.8;"></rect><rect class="rect" id="2_12" width="12" height="12" x="-72" y="255" style="fill: rgb(160, 160, 160); stroke: black; stroke-width: 1; opacity: 0.8;"></rect><rect class="rect" id="2_13" width="12" height="12" x="-64" y="263" style="fill: rgb(224, 224, 224); stroke: black; stroke-width: 1; opacity: 0.8;"></rect><rect class="rect" id="2_14" width="12" height="12" x="-56" y="271" style="fill: rgb(160, 160, 160); stroke: black; stroke-width: 1; opacity: 0.8;"></rect><rect class="rect" id="2_15" width="12" height="12" x="-48" y="279" style="fill: rgb(224, 224, 224); stroke: black; stroke-width: 1; opacity: 0.8;"></rect><rect class="rect" id="2_16" width="12" height="12" x="-40" y="287" style="fill: rgb(160, 160, 160); stroke: black; stroke-width: 1; opacity: 0.8;"></rect><rect class="rect" id="2_17" width="12" height="12" x="-32" y="295" style="fill: rgb(224, 224, 224); stroke: black; stroke-width: 1; opacity: 0.8;"></rect><rect class="rect" id="2_18" width="12" height="12" x="-24" y="303" style="fill: rgb(160, 160, 160); stroke: black; stroke-width: 1; opacity: 0.8;"></rect><rect class="rect" id="2_19" width="12" height="12" x="-16" y="311" style="fill: rgb(224, 224, 224); stroke: black; stroke-width: 1; opacity: 0.8;"></rect><rect class="rect" id="2_20" width="12" height="12" x="-8" y="319" style="fill: rgb(160, 160, 160); stroke: black; stroke-width: 1; opacity: 0.8;"></rect><rect class="rect" id="2_21" width="12" height="12" x="0" y="327" style="fill: rgb(224, 224, 224); stroke: black; stroke-width: 1; opacity: 0.8;"></rect><rect class="rect" id="2_22" width="12" height="12" x="8" y="335" style="fill: rgb(160, 160, 160); stroke: black; stroke-width: 1; opacity: 0.8;"></rect><rect class="rect" id="2_23" width="12" height="12" x="16" y="343" style="fill: rgb(224, 224, 224); stroke: black; stroke-width: 1; opacity: 0.8;"></rect><rect class="rect" id="2_24" width="12" height="12" x="24" y="351" style="fill: rgb(160, 160, 160); stroke: black; stroke-width: 1; opacity: 0.8;"></rect><rect class="rect" id="2_25" width="12" height="12" x="32" y="359" style="fill: rgb(224, 224, 224); stroke: black; stroke-width: 1; opacity: 0.8;"></rect><rect class="rect" id="2_26" width="12" height="12" x="40" y="367" style="fill: rgb(160, 160, 160); stroke: black; stroke-width: 1; opacity: 0.8;"></rect><rect class="rect" id="2_27" width="12" height="12" x="48" y="375" style="fill: rgb(224, 224, 224); stroke: black; stroke-width: 1; opacity: 0.8;"></rect><rect class="rect" id="2_28" width="12" height="12" x="56" y="383" style="fill: rgb(160, 160, 160); stroke: black; stroke-width: 1; opacity: 0.8;"></rect><rect class="rect" id="2_29" width="12" height="12" x="64" y="391" style="fill: rgb(224, 224, 224); stroke: black; stroke-width: 1; opacity: 0.8;"></rect><rect class="rect" id="2_30" width="12" height="12" x="72" y="399" style="fill: rgb(160, 160, 160); stroke: black; stroke-width: 1; opacity: 0.8;"></rect><rect class="rect" id="2_31" width="12" height="12" x="80" y="407" style="fill: rgb(224, 224, 224); stroke: black; stroke-width: 1; opacity: 0.8;"></rect><rect class="rect" id="2_32" width="12" height="12" x="88" y="415" style="fill: rgb(160, 160, 160); stroke: black; stroke-width: 1; opacity: 0.8;"></rect><rect class="rect" id="2_33" width="12" height="12" x="96" y="423" style="fill: rgb(224, 224, 224); stroke: black; stroke-width: 1; opacity: 0.8;"></rect><rect class="rect" id="2_34" width="12" height="12" x="104" y="431" style="fill: rgb(160, 160, 160); stroke: black; stroke-width: 1; opacity: 0.8;"></rect><rect class="rect" id="2_35" width="12" height="12" x="112" y="439" style="fill: rgb(224, 224, 224); stroke: black; stroke-width: 1; opacity: 0.8;"></rect><rect class="rect" id="2_36" width="12" height="12" x="120" y="447" style="fill: rgb(160, 160, 160); stroke: black; stroke-width: 1; opacity: 0.8;"></rect><rect class="rect" id="2_37" width="12" height="12" x="128" y="455" style="fill: rgb(224, 224, 224); stroke: black; stroke-width: 1; opacity: 0.8;"></rect><rect class="rect" id="2_38" width="12" height="12" x="136" y="463" style="fill: rgb(160, 160, 160); stroke: black; stroke-width: 1; opacity: 0.8;"></rect><rect class="rect" id="2_39" width="12" height="12" x="144" y="471" style="fill: rgb(224, 224, 224); stroke: black; stroke-width: 1; opacity: 0.8;"></rect><rect class="rect" id="2_40" width="12" height="12" x="152" y="479" style="fill: rgb(160, 160, 160); stroke: black; stroke-width: 1; opacity: 0.8;"></rect><rect class="rect" id="2_41" width="12" height="12" x="160" y="487" style="fill: rgb(224, 224, 224); stroke: black; stroke-width: 1; opacity: 0.8;"></rect><rect class="rect" id="2_42" width="12" height="12" x="168" y="495" style="fill: rgb(160, 160, 160); stroke: black; stroke-width: 1; opacity: 0.8;"></rect><rect class="rect" id="2_43" width="12" height="12" x="176" y="503" style="fill: rgb(224, 224, 224); stroke: black; stroke-width: 1; opacity: 0.8;"></rect><rect class="rect" id="2_44" width="12" height="12" x="184" y="511" style="fill: rgb(160, 160, 160); stroke: black; stroke-width: 1; opacity: 0.8;"></rect><rect class="rect" id="2_45" width="12" height="12" x="192" y="519" style="fill: rgb(224, 224, 224); stroke: black; stroke-width: 1; opacity: 0.8;"></rect><rect class="rect" id="2_46" width="12" height="12" x="200" y="527" style="fill: rgb(160, 160, 160); stroke: black; stroke-width: 1; opacity: 0.8;"></rect><rect class="rect" id="2_47" width="12" height="12" x="208" y="535" style="fill: rgb(224, 224, 224); stroke: black; stroke-width: 1; opacity: 0.8;"></rect><rect class="rect" id="2_48" width="12" height="12" x="216" y="543" style="fill: rgb(160, 160, 160); stroke: black; stroke-width: 1; opacity: 0.8;"></rect><rect class="rect" id="2_49" width="12" height="12" x="224" y="551" style="fill: rgb(224, 224, 224); stroke: black; stroke-width: 1; opacity: 0.8;"></rect><rect class="rect" id="3_0" width="8" height="8" x="136" y="121" style="fill: rgb(160, 160, 160); stroke: black; stroke-width: 1; opacity: 0.8;"></rect><rect class="rect" id="3_1" width="8" height="8" x="144" y="129" style="fill: rgb(224, 224, 224); stroke: black; stroke-width: 1; opacity: 0.8;"></rect><rect class="rect" id="3_2" width="8" height="8" x="152" y="137" style="fill: rgb(160, 160, 160); stroke: black; stroke-width: 1; opacity: 0.8;"></rect><rect class="rect" id="3_3" width="8" height="8" x="160" y="145" style="fill: rgb(224, 224, 224); stroke: black; stroke-width: 1; opacity: 0.8;"></rect><rect class="rect" id="3_4" width="8" height="8" x="168" y="153" style="fill: rgb(160, 160, 160); stroke: black; stroke-width: 1; opacity: 0.8;"></rect><rect class="rect" id="3_5" width="8" height="8" x="176" y="161" style="fill: rgb(224, 224, 224); stroke: black; stroke-width: 1; opacity: 0.8;"></rect><rect class="rect" id="3_6" width="8" height="8" x="184" y="169" style="fill: rgb(160, 160, 160); stroke: black; stroke-width: 1; opacity: 0.8;"></rect><rect class="rect" id="3_7" width="8" height="8" x="192" y="177" style="fill: rgb(224, 224, 224); stroke: black; stroke-width: 1; opacity: 0.8;"></rect><rect class="rect" id="3_8" width="8" height="8" x="200" y="185" style="fill: rgb(160, 160, 160); stroke: black; stroke-width: 1; opacity: 0.8;"></rect><rect class="rect" id="3_9" width="8" height="8" x="208" y="193" style="fill: rgb(224, 224, 224); stroke: black; stroke-width: 1; opacity: 0.8;"></rect><rect class="rect" id="3_10" width="8" height="8" x="216" y="201" style="fill: rgb(160, 160, 160); stroke: black; stroke-width: 1; opacity: 0.8;"></rect><rect class="rect" id="3_11" width="8" height="8" x="224" y="209" style="fill: rgb(224, 224, 224); stroke: black; stroke-width: 1; opacity: 0.8;"></rect><rect class="rect" id="3_12" width="8" height="8" x="232" y="217" style="fill: rgb(160, 160, 160); stroke: black; stroke-width: 1; opacity: 0.8;"></rect><rect class="rect" id="3_13" width="8" height="8" x="240" y="225" style="fill: rgb(224, 224, 224); stroke: black; stroke-width: 1; opacity: 0.8;"></rect><rect class="rect" id="3_14" width="8" height="8" x="248" y="233" style="fill: rgb(160, 160, 160); stroke: black; stroke-width: 1; opacity: 0.8;"></rect><rect class="rect" id="3_15" width="8" height="8" x="256" y="241" style="fill: rgb(224, 224, 224); stroke: black; stroke-width: 1; opacity: 0.8;"></rect><rect class="rect" id="3_16" width="8" height="8" x="264" y="249" style="fill: rgb(160, 160, 160); stroke: black; stroke-width: 1; opacity: 0.8;"></rect><rect class="rect" id="3_17" width="8" height="8" x="272" y="257" style="fill: rgb(224, 224, 224); stroke: black; stroke-width: 1; opacity: 0.8;"></rect><rect class="rect" id="3_18" width="8" height="8" x="280" y="265" style="fill: rgb(160, 160, 160); stroke: black; stroke-width: 1; opacity: 0.8;"></rect><rect class="rect" id="3_19" width="8" height="8" x="288" y="273" style="fill: rgb(224, 224, 224); stroke: black; stroke-width: 1; opacity: 0.8;"></rect><rect class="rect" id="3_20" width="8" height="8" x="296" y="281" style="fill: rgb(160, 160, 160); stroke: black; stroke-width: 1; opacity: 0.8;"></rect><rect class="rect" id="3_21" width="8" height="8" x="304" y="289" style="fill: rgb(224, 224, 224); stroke: black; stroke-width: 1; opacity: 0.8;"></rect><rect class="rect" id="3_22" width="8" height="8" x="312" y="297" style="fill: rgb(160, 160, 160); stroke: black; stroke-width: 1; opacity: 0.8;"></rect><rect class="rect" id="3_23" width="8" height="8" x="320" y="305" style="fill: rgb(224, 224, 224); stroke: black; stroke-width: 1; opacity: 0.8;"></rect><rect class="rect" id="3_24" width="8" height="8" x="328" y="313" style="fill: rgb(160, 160, 160); stroke: black; stroke-width: 1; opacity: 0.8;"></rect><rect class="rect" id="3_25" width="8" height="8" x="336" y="321" style="fill: rgb(224, 224, 224); stroke: black; stroke-width: 1; opacity: 0.8;"></rect><rect class="rect" id="3_26" width="8" height="8" x="344" y="329" style="fill: rgb(160, 160, 160); stroke: black; stroke-width: 1; opacity: 0.8;"></rect><rect class="rect" id="3_27" width="8" height="8" x="352" y="337" style="fill: rgb(224, 224, 224); stroke: black; stroke-width: 1; opacity: 0.8;"></rect><rect class="rect" id="3_28" width="8" height="8" x="360" y="345" style="fill: rgb(160, 160, 160); stroke: black; stroke-width: 1; opacity: 0.8;"></rect><rect class="rect" id="3_29" width="8" height="8" x="368" y="353" style="fill: rgb(224, 224, 224); stroke: black; stroke-width: 1; opacity: 0.8;"></rect><rect class="rect" id="3_30" width="8" height="8" x="376" y="361" style="fill: rgb(160, 160, 160); stroke: black; stroke-width: 1; opacity: 0.8;"></rect><rect class="rect" id="3_31" width="8" height="8" x="384" y="369" style="fill: rgb(224, 224, 224); stroke: black; stroke-width: 1; opacity: 0.8;"></rect><rect class="rect" id="3_32" width="8" height="8" x="392" y="377" style="fill: rgb(160, 160, 160); stroke: black; stroke-width: 1; opacity: 0.8;"></rect><rect class="rect" id="3_33" width="8" height="8" x="400" y="385" style="fill: rgb(224, 224, 224); stroke: black; stroke-width: 1; opacity: 0.8;"></rect><rect class="rect" id="3_34" width="8" height="8" x="408" y="393" style="fill: rgb(160, 160, 160); stroke: black; stroke-width: 1; opacity: 0.8;"></rect><rect class="rect" id="3_35" width="8" height="8" x="416" y="401" style="fill: rgb(224, 224, 224); stroke: black; stroke-width: 1; opacity: 0.8;"></rect><rect class="rect" id="3_36" width="8" height="8" x="424" y="409" style="fill: rgb(160, 160, 160); stroke: black; stroke-width: 1; opacity: 0.8;"></rect><rect class="rect" id="3_37" width="8" height="8" x="432" y="417" style="fill: rgb(224, 224, 224); stroke: black; stroke-width: 1; opacity: 0.8;"></rect><rect class="rect" id="3_38" width="8" height="8" x="440" y="425" style="fill: rgb(160, 160, 160); stroke: black; stroke-width: 1; opacity: 0.8;"></rect><rect class="rect" id="3_39" width="8" height="8" x="448" y="433" style="fill: rgb(224, 224, 224); stroke: black; stroke-width: 1; opacity: 0.8;"></rect><rect class="rect" id="3_40" width="8" height="8" x="456" y="441" style="fill: rgb(160, 160, 160); stroke: black; stroke-width: 1; opacity: 0.8;"></rect><rect class="rect" id="3_41" width="8" height="8" x="464" y="449" style="fill: rgb(224, 224, 224); stroke: black; stroke-width: 1; opacity: 0.8;"></rect><rect class="rect" id="3_42" width="8" height="8" x="472" y="457" style="fill: rgb(160, 160, 160); stroke: black; stroke-width: 1; opacity: 0.8;"></rect><rect class="rect" id="3_43" width="8" height="8" x="480" y="465" style="fill: rgb(224, 224, 224); stroke: black; stroke-width: 1; opacity: 0.8;"></rect><rect class="rect" id="3_44" width="8" height="8" x="488" y="473" style="fill: rgb(160, 160, 160); stroke: black; stroke-width: 1; opacity: 0.8;"></rect><rect class="rect" id="3_45" width="8" height="8" x="496" y="481" style="fill: rgb(224, 224, 224); stroke: black; stroke-width: 1; opacity: 0.8;"></rect><rect class="rect" id="3_46" width="8" height="8" x="504" y="489" style="fill: rgb(160, 160, 160); stroke: black; stroke-width: 1; opacity: 0.8;"></rect><rect class="rect" id="3_47" width="8" height="8" x="512" y="497" style="fill: rgb(224, 224, 224); stroke: black; stroke-width: 1; opacity: 0.8;"></rect><rect class="rect" id="3_48" width="8" height="8" x="520" y="505" style="fill: rgb(160, 160, 160); stroke: black; stroke-width: 1; opacity: 0.8;"></rect><rect class="rect" id="3_49" width="8" height="8" x="528" y="513" style="fill: rgb(224, 224, 224); stroke: black; stroke-width: 1; opacity: 0.8;"></rect><rect class="rect" id="3_50" width="8" height="8" x="536" y="521" style="fill: rgb(160, 160, 160); stroke: black; stroke-width: 1; opacity: 0.8;"></rect><rect class="rect" id="3_51" width="8" height="8" x="544" y="529" style="fill: rgb(224, 224, 224); stroke: black; stroke-width: 1; opacity: 0.8;"></rect><rect class="rect" id="3_52" width="8" height="8" x="552" y="537" style="fill: rgb(160, 160, 160); stroke: black; stroke-width: 1; opacity: 0.8;"></rect><rect class="rect" id="3_53" width="8" height="8" x="560" y="545" style="fill: rgb(224, 224, 224); stroke: black; stroke-width: 1; opacity: 0.8;"></rect><rect class="rect" id="3_54" width="8" height="8" x="568" y="553" style="fill: rgb(160, 160, 160); stroke: black; stroke-width: 1; opacity: 0.8;"></rect><rect class="rect" id="3_55" width="8" height="8" x="576" y="561" style="fill: rgb(224, 224, 224); stroke: black; stroke-width: 1; opacity: 0.8;"></rect><rect class="rect" id="3_56" width="8" height="8" x="584" y="569" style="fill: rgb(160, 160, 160); stroke: black; stroke-width: 1; opacity: 0.8;"></rect><rect class="rect" id="3_57" width="8" height="8" x="592" y="577" style="fill: rgb(224, 224, 224); stroke: black; stroke-width: 1; opacity: 0.8;"></rect><rect class="rect" id="3_58" width="8" height="8" x="600" y="585" style="fill: rgb(160, 160, 160); stroke: black; stroke-width: 1; opacity: 0.8;"></rect><rect class="rect" id="3_59" width="8" height="8" x="608" y="593" style="fill: rgb(224, 224, 224); stroke: black; stroke-width: 1; opacity: 0.8;"></rect><rect class="rect" id="4_0" width="4" height="4" x="516" y="123" style="fill: rgb(160, 160, 160); stroke: black; stroke-width: 1; opacity: 0.8;"></rect><rect class="rect" id="4_1" width="4" height="4" x="524" y="131" style="fill: rgb(224, 224, 224); stroke: black; stroke-width: 1; opacity: 0.8;"></rect><rect class="rect" id="4_2" width="4" height="4" x="532" y="139" style="fill: rgb(160, 160, 160); stroke: black; stroke-width: 1; opacity: 0.8;"></rect><rect class="rect" id="4_3" width="4" height="4" x="540" y="147" style="fill: rgb(224, 224, 224); stroke: black; stroke-width: 1; opacity: 0.8;"></rect><rect class="rect" id="4_4" width="4" height="4" x="548" y="155" style="fill: rgb(160, 160, 160); stroke: black; stroke-width: 1; opacity: 0.8;"></rect><rect class="rect" id="4_5" width="4" height="4" x="556" y="163" style="fill: rgb(224, 224, 224); stroke: black; stroke-width: 1; opacity: 0.8;"></rect><rect class="rect" id="4_6" width="4" height="4" x="564" y="171" style="fill: rgb(160, 160, 160); stroke: black; stroke-width: 1; opacity: 0.8;"></rect><rect class="rect" id="4_7" width="4" height="4" x="572" y="179" style="fill: rgb(224, 224, 224); stroke: black; stroke-width: 1; opacity: 0.8;"></rect><rect class="rect" id="4_8" width="4" height="4" x="580" y="187" style="fill: rgb(160, 160, 160); stroke: black; stroke-width: 1; opacity: 0.8;"></rect><rect class="rect" id="4_9" width="4" height="4" x="588" y="195" style="fill: rgb(224, 224, 224); stroke: black; stroke-width: 1; opacity: 0.8;"></rect><rect class="rect" id="4_10" width="4" height="4" x="596" y="203" style="fill: rgb(160, 160, 160); stroke: black; stroke-width: 1; opacity: 0.8;"></rect><rect class="rect" id="4_11" width="4" height="4" x="604" y="211" style="fill: rgb(224, 224, 224); stroke: black; stroke-width: 1; opacity: 0.8;"></rect><rect class="rect" id="4_12" width="4" height="4" x="612" y="219" style="fill: rgb(160, 160, 160); stroke: black; stroke-width: 1; opacity: 0.8;"></rect><rect class="rect" id="4_13" width="4" height="4" x="620" y="227" style="fill: rgb(224, 224, 224); stroke: black; stroke-width: 1; opacity: 0.8;"></rect><rect class="rect" id="4_14" width="4" height="4" x="628" y="235" style="fill: rgb(160, 160, 160); stroke: black; stroke-width: 1; opacity: 0.8;"></rect><rect class="rect" id="4_15" width="4" height="4" x="636" y="243" style="fill: rgb(224, 224, 224); stroke: black; stroke-width: 1; opacity: 0.8;"></rect><rect class="rect" id="4_16" width="4" height="4" x="644" y="251" style="fill: rgb(160, 160, 160); stroke: black; stroke-width: 1; opacity: 0.8;"></rect><rect class="rect" id="4_17" width="4" height="4" x="652" y="259" style="fill: rgb(224, 224, 224); stroke: black; stroke-width: 1; opacity: 0.8;"></rect><rect class="rect" id="4_18" width="4" height="4" x="660" y="267" style="fill: rgb(160, 160, 160); stroke: black; stroke-width: 1; opacity: 0.8;"></rect><rect class="rect" id="4_19" width="4" height="4" x="668" y="275" style="fill: rgb(224, 224, 224); stroke: black; stroke-width: 1; opacity: 0.8;"></rect><rect class="rect" id="4_20" width="4" height="4" x="676" y="283" style="fill: rgb(160, 160, 160); stroke: black; stroke-width: 1; opacity: 0.8;"></rect><rect class="rect" id="4_21" width="4" height="4" x="684" y="291" style="fill: rgb(224, 224, 224); stroke: black; stroke-width: 1; opacity: 0.8;"></rect><rect class="rect" id="4_22" width="4" height="4" x="692" y="299" style="fill: rgb(160, 160, 160); stroke: black; stroke-width: 1; opacity: 0.8;"></rect><rect class="rect" id="4_23" width="4" height="4" x="700" y="307" style="fill: rgb(224, 224, 224); stroke: black; stroke-width: 1; opacity: 0.8;"></rect><rect class="rect" id="4_24" width="4" height="4" x="708" y="315" style="fill: rgb(160, 160, 160); stroke: black; stroke-width: 1; opacity: 0.8;"></rect><rect class="rect" id="4_25" width="4" height="4" x="716" y="323" style="fill: rgb(224, 224, 224); stroke: black; stroke-width: 1; opacity: 0.8;"></rect><rect class="rect" id="4_26" width="4" height="4" x="724" y="331" style="fill: rgb(160, 160, 160); stroke: black; stroke-width: 1; opacity: 0.8;"></rect><rect class="rect" id="4_27" width="4" height="4" x="732" y="339" style="fill: rgb(224, 224, 224); stroke: black; stroke-width: 1; opacity: 0.8;"></rect><rect class="rect" id="4_28" width="4" height="4" x="740" y="347" style="fill: rgb(160, 160, 160); stroke: black; stroke-width: 1; opacity: 0.8;"></rect><rect class="rect" id="4_29" width="4" height="4" x="748" y="355" style="fill: rgb(224, 224, 224); stroke: black; stroke-width: 1; opacity: 0.8;"></rect><rect class="rect" id="4_30" width="4" height="4" x="756" y="363" style="fill: rgb(160, 160, 160); stroke: black; stroke-width: 1; opacity: 0.8;"></rect><rect class="rect" id="4_31" width="4" height="4" x="764" y="371" style="fill: rgb(224, 224, 224); stroke: black; stroke-width: 1; opacity: 0.8;"></rect><rect class="rect" id="4_32" width="4" height="4" x="772" y="379" style="fill: rgb(160, 160, 160); stroke: black; stroke-width: 1; opacity: 0.8;"></rect><rect class="rect" id="4_33" width="4" height="4" x="780" y="387" style="fill: rgb(224, 224, 224); stroke: black; stroke-width: 1; opacity: 0.8;"></rect><rect class="rect" id="4_34" width="4" height="4" x="788" y="395" style="fill: rgb(160, 160, 160); stroke: black; stroke-width: 1; opacity: 0.8;"></rect><rect class="rect" id="4_35" width="4" height="4" x="796" y="403" style="fill: rgb(224, 224, 224); stroke: black; stroke-width: 1; opacity: 0.8;"></rect><rect class="rect" id="4_36" width="4" height="4" x="804" y="411" style="fill: rgb(160, 160, 160); stroke: black; stroke-width: 1; opacity: 0.8;"></rect><rect class="rect" id="4_37" width="4" height="4" x="812" y="419" style="fill: rgb(224, 224, 224); stroke: black; stroke-width: 1; opacity: 0.8;"></rect><rect class="rect" id="4_38" width="4" height="4" x="820" y="427" style="fill: rgb(160, 160, 160); stroke: black; stroke-width: 1; opacity: 0.8;"></rect><rect class="rect" id="4_39" width="4" height="4" x="828" y="435" style="fill: rgb(224, 224, 224); stroke: black; stroke-width: 1; opacity: 0.8;"></rect><rect class="rect" id="4_40" width="4" height="4" x="836" y="443" style="fill: rgb(160, 160, 160); stroke: black; stroke-width: 1; opacity: 0.8;"></rect><rect class="rect" id="4_41" width="4" height="4" x="844" y="451" style="fill: rgb(224, 224, 224); stroke: black; stroke-width: 1; opacity: 0.8;"></rect><rect class="rect" id="4_42" width="4" height="4" x="852" y="459" style="fill: rgb(160, 160, 160); stroke: black; stroke-width: 1; opacity: 0.8;"></rect><rect class="rect" id="4_43" width="4" height="4" x="860" y="467" style="fill: rgb(224, 224, 224); stroke: black; stroke-width: 1; opacity: 0.8;"></rect><rect class="rect" id="4_44" width="4" height="4" x="868" y="475" style="fill: rgb(160, 160, 160); stroke: black; stroke-width: 1; opacity: 0.8;"></rect><rect class="rect" id="4_45" width="4" height="4" x="876" y="483" style="fill: rgb(224, 224, 224); stroke: black; stroke-width: 1; opacity: 0.8;"></rect><rect class="rect" id="4_46" width="4" height="4" x="884" y="491" style="fill: rgb(160, 160, 160); stroke: black; stroke-width: 1; opacity: 0.8;"></rect><rect class="rect" id="4_47" width="4" height="4" x="892" y="499" style="fill: rgb(224, 224, 224); stroke: black; stroke-width: 1; opacity: 0.8;"></rect><rect class="rect" id="4_48" width="4" height="4" x="900" y="507" style="fill: rgb(160, 160, 160); stroke: black; stroke-width: 1; opacity: 0.8;"></rect><rect class="rect" id="4_49" width="4" height="4" x="908" y="515" style="fill: rgb(224, 224, 224); stroke: black; stroke-width: 1; opacity: 0.8;"></rect><rect class="rect" id="4_50" width="4" height="4" x="916" y="523" style="fill: rgb(160, 160, 160); stroke: black; stroke-width: 1; opacity: 0.8;"></rect><rect class="rect" id="4_51" width="4" height="4" x="924" y="531" style="fill: rgb(224, 224, 224); stroke: black; stroke-width: 1; opacity: 0.8;"></rect><rect class="rect" id="4_52" width="4" height="4" x="932" y="539" style="fill: rgb(160, 160, 160); stroke: black; stroke-width: 1; opacity: 0.8;"></rect><rect class="rect" id="4_53" width="4" height="4" x="940" y="547" style="fill: rgb(224, 224, 224); stroke: black; stroke-width: 1; opacity: 0.8;"></rect><rect class="rect" id="4_54" width="4" height="4" x="948" y="555" style="fill: rgb(160, 160, 160); stroke: black; stroke-width: 1; opacity: 0.8;"></rect><rect class="rect" id="4_55" width="4" height="4" x="956" y="563" style="fill: rgb(224, 224, 224); stroke: black; stroke-width: 1; opacity: 0.8;"></rect><rect class="rect" id="4_56" width="4" height="4" x="964" y="571" style="fill: rgb(160, 160, 160); stroke: black; stroke-width: 1; opacity: 0.8;"></rect><rect class="rect" id="4_57" width="4" height="4" x="972" y="579" style="fill: rgb(224, 224, 224); stroke: black; stroke-width: 1; opacity: 0.8;"></rect><rect class="rect" id="4_58" width="4" height="4" x="980" y="587" style="fill: rgb(160, 160, 160); stroke: black; stroke-width: 1; opacity: 0.8;"></rect><rect class="rect" id="4_59" width="4" height="4" x="988" y="595" style="fill: rgb(224, 224, 224); stroke: black; stroke-width: 1; opacity: 0.8;"></rect><rect class="conv" id="conv_0" width="0" height="0" x="-402.20821195826744" y="381.69119361228894" style="fill-opacity: 0; stroke: black; stroke-width: 1; stroke-opacity: 0.8;"></rect><rect class="conv" id="conv_1" width="9" height="9" x="-80.30284885388801" y="547.3836901805764" style="fill-opacity: 0; stroke: black; stroke-width: 1; stroke-opacity: 0.8;"></rect><rect class="conv" id="conv_2" width="2" height="2" x="225.40324380887705" y="553.283870902495" style="fill-opacity: 0; stroke: black; stroke-width: 1; stroke-opacity: 0.8;"></rect><rect class="conv" id="conv_3" width="5" height="5" x="608.9674753339061" y="593.9910320724216" style="fill-opacity: 0; stroke: black; stroke-width: 1; stroke-opacity: 0.8;"></rect><line class="link" id="conv_0" x1="-402.20821195826744" y1="381.69119361228894" x2="-81.6561589687006" y2="566.5183952092167" style="stroke: black; stroke-width: 0.5; stroke-opacity: 0.8;"></line><line class="link" id="conv_0" x1="-402.20821195826744" y1="381.69119361228894" x2="-81.6561589687006" y2="566.5183952092167" style="stroke: black; stroke-width: 0.5; stroke-opacity: 0.8;"></line><line class="link" id="conv_1" x1="-71.30284885388801" y1="556.3836901805764" x2="233.35772091688955" y2="552.9069521444612" style="stroke: black; stroke-width: 0.5; stroke-opacity: 0.8;"></line><line class="link" id="conv_1" x1="-71.30284885388801" y1="547.3836901805764" x2="233.35772091688955" y2="552.9069521444612" style="stroke: black; stroke-width: 0.5; stroke-opacity: 0.8;"></line><line class="link" id="conv_2" x1="227.40324380887705" y1="555.283870902495" x2="609.1225950471016" y2="594.827096721996" style="stroke: black; stroke-width: 0.5; stroke-opacity: 0.8;"></line><line class="link" id="conv_2" x1="227.40324380887705" y1="553.283870902495" x2="609.1225950471016" y2="594.827096721996" style="stroke: black; stroke-width: 0.5; stroke-opacity: 0.8;"></line><line class="link" id="conv_3" x1="613.9674753339061" y1="598.9910320724216" x2="989.2899671118748" y2="596.3213760965621" style="stroke: black; stroke-width: 0.5; stroke-opacity: 0.8;"></line><line class="link" id="conv_3" x1="613.9674753339061" y1="593.9910320724216" x2="989.2899671118748" y2="596.3213760965621" style="stroke: black; stroke-width: 0.5; stroke-opacity: 0.8;"></line><polygon class="poly" id="fc_0" points="892,254.93398282201787 902,254.93398282201787 1114.1320343559642,467.0660171779821 1104.1320343559642,467.0660171779821" style="fill: rgb(224, 224, 224); stroke: black; stroke-width: 1; opacity: 0.8;"></polygon><polygon class="poly" id="fc_1" points="1116.1320343559642,357.46446609406723 1126.1320343559642,357.46446609406723 1133.2031021678297,364.5355339059327 1123.2031021678297,364.5355339059327" style="fill: rgb(224, 224, 224); stroke: black; stroke-width: 1; opacity: 0.8;"></polygon><line class="line" id="fc_0" x1="992" y1="599" x2="1104.1320343559642" y2="467.0660171779821" style="stroke: black; stroke-width: 0.5; stroke-opacity: 0.8;"></line><line class="line" id="fc_0" x1="520" y1="123" x2="892" y2="254.93398282201787" style="stroke: black; stroke-width: 0.5; stroke-opacity: 0.8;"></line><line class="line" id="fc_1" x1="1114.1320343559642" y1="467.0660171779821" x2="1123.2031021678297" y2="364.53553390593277" style="stroke: black; stroke-width: 0.5; stroke-opacity: 0.8;"></line><line class="line" id="fc_1" x1="902" y1="254.93398282201787" x2="1116.1320343559642" y2="357.46446609406723" style="stroke: black; stroke-width: 0.5; stroke-opacity: 0.8;"></line><text class="text" dy=".35em" font-family="sans-serif" x="-345" y="817" style="font-size: 16px;">Input Layer</text><text class="text" dy=".35em" font-family="sans-serif" x="-32" y="817" style="font-size: 16px;">Convolution 1 (VALID)</text><text class="text" dy=".35em" font-family="sans-serif" x="291" y="817" style="font-size: 16px;">Pooling 1 (VALID)</text><text class="text" dy=".35em" font-family="sans-serif" x="670" y="817" style="font-size: 16px;">Convolution 2 (VALID)</text><text class="text" dy=".35em" font-family="sans-serif" x="980.0330085889912" y="817" style="font-size: 16px;">Pooling 2 (VALID)</text><text class="info" dy="-0.3em" font-family="sans-serif" x="-432" y="322" style="font-size: 16px;">3@32x32</text><text class="info" dy="-0.3em" font-family="sans-serif" x="-484" y="138" style="font-size: 16px;">50@24x24</text><text class="info" dy="-0.3em" font-family="sans-serif" x="-168" y="144" style="font-size: 16px;">50@12x12</text><text class="info" dy="-0.3em" font-family="sans-serif" x="136" y="106" style="font-size: 16px;">60@8x8</text><text class="info" dy="-0.3em" font-family="sans-serif" x="516" y="108" style="font-size: 16px;">60@4x4</text><text class="info" dy="-0.3em" font-family="sans-serif" x="892" y="239.93398282201787" style="font-size: 16px;">1x300</text><text class="info" dy="-0.3em" font-family="sans-serif" x="1116.1320343559642" y="342.46446609406723" style="font-size: 16px;">1x10</text></g></svg>